<?xml version="1.0" encoding="UTF-8"?>
<svg version="1.1" viewBox="0 0 765 990" xmlns="http://www.w3.org/2000/svg" xmlns:xlink="http://www.w3.org/1999/xlink">
 <defs>
  <pattern id="c" xlink:href="#d" patternTransform="translate(-103.9 584.91)"/>
  <pattern id="d" width="37.344457" height="33.118509" patternTransform="translate(-103.9 647.27)" patternUnits="userSpaceOnUse">
   <g transform="translate(103.9 -647.27)">
    <path d="m-94.426 651.26s5.8798-7.8242 9.3887-1.5648-8.9251 14.894-8.9251 14.894-12.023-5.1222-9.6205-12.808c2.4024-7.6859 9.1569-0.52159 9.1569-0.52159z" fill="#892ca0"/>
    <path d="m-76.569 667.06s5.8798-7.8242 9.3887-1.5648-8.9251 14.894-8.9251 14.894-12.023-5.1222-9.6205-12.808c2.4024-7.6859 9.1569-0.52159 9.1569-0.52159z" fill="#892ca0"/>
   </g>
  </pattern>
 </defs>
 <path d="m235.89 629.8c-11.535 22.344-53.046 30.569-37.443 77.133 2.7945 12.215 37.74 53.239 99.225-25.087-15.54-21.28-28.934-44.228-61.781-52.046z" fill="#ffd4aa"/>
 <path d="m583.37 667.24 66.649-59.909c8.3233 33.526 39.068 65.392-2.2466 102.59-63.969 38.56-39.572-19.469-64.402-42.685z" fill="#ffd4aa"/>
 <path d="m563.9 445.58c-25.016 7.5872-65.4 13.038-67.398 27.708-48.999 24.973-86.213 15.551-119.07-2.9955-2.1925-16.388-10.846-28.254-32.95-30.703-70.181 32.166-67.076 52.117-80.877 74.887-10.479 41.369-16.403 94.882-32.201 122.07 34.014 5.0238 45.637 31.084 58.412 55.416 12.827-14.803 25.192-28.842 32.201-59.16-2.1998 39.245 0.20721 71.58 5.9909 98.85-2.1452 38.762 4.8416 81.633-35.197 103.34-29.383 17.975-29.029 36.942 1.4977 56.914 54.701 20.629 88.208 3.1095 113.08-29.955 32.242-42.244 28.212-77.234 32.201-113.83 6.3223 36.558 9.2631 78.752 20.968 106.34 5.7226 26.26 30.142 46.072 93.608 52.421 76.739-2.5973 93.775-50.797 59.16-63.654-51.374-21.626-46.511-45.336-45.681-68.896 1.5741-44.771 6.2782-87.038-1.4977-139.29 7.6834 16.418 13.4 39.72 24.713 43.434 19.711-27.743 38.234-60.243 63.654-65.151-24.26-59.38-33.8-140.94-90.61-167.75z" fill="#cd87de"/>
 <g transform="translate(0,-62.362)" fill="#ddafe9">
  <path d="m646.72 663.96c-47.14 7.2208-57.534 51.981-62.938 64.094a2.0005 2.0005 0 1 0 3.6562 1.625c6.0726-13.612 15.061-54.885 59.875-61.75a2.0065 2.0065 0 1 0 -0.59375 -3.9688z" color="#000000" style="block-progression:tb;text-indent:0;text-transform:none"/>
  <path d="m239.38 687.17a2.0002 2.0002 0 0 0 0.125 3.9688c22.861 1.5743 34.536 7.237 42.188 14.375 7.6516 7.138 11.357 16.088 17.75 24.531a2.0002 2.0002 0 1 0 3.1875 -2.4062c-6.002-7.9264-9.8387-17.214-18.219-25.031-8.3801-7.8176-21.194-13.824-44.625-15.438a2.0002 2.0002 0 0 0 -0.40625 0z" color="#000000" style="block-progression:tb;text-indent:0;text-transform:none"/>
 </g>
 <g transform="translate(0,-62.362)" fill="#eed7f4">
  <path d="m429.81 711.11a0.50005 0.50005 0 0 0 -0.46875 0.46875c-3.3723 31.647 0.40622 60.921 9.0312 88.562a0.50005 0.50005 0 1 0 0.9375 -0.3125c-8.5898-27.528-12.326-56.652-8.9688-88.156a0.50005 0.50005 0 0 0 -0.53125 -0.5625z" color="#000000" style="block-progression:tb;text-indent:0;text-transform:none"/>
  <path d="m343.66 608.52a0.50005 0.50005 0 0 0 -0.375 0.28125c-12.608 25.643-16.938 55.366-21.75 84.781a0.50005 0.50005 0 1 0 0.96875 0.15625c4.8134-29.426 9.1743-59.019 21.688-84.469a0.50005 0.50005 0 0 0 -0.53125 -0.75z" color="#000000" style="block-progression:tb;text-indent:0;text-transform:none"/>
  <path d="m540.62 609.27a0.50005 0.50005 0 0 0 -0.34375 0.8125c16.744 21.232 21.263 56.837 24.625 79.906a0.50005 0.50005 0 1 0 0.96875 -0.15625c-3.359-23.048-7.7877-58.755-24.812-80.344a0.50005 0.50005 0 0 0 -0.4375 -0.21875z" color="#000000" style="block-progression:tb;text-indent:0;text-transform:none"/>
 </g>
 <g transform="translate(0,-62.362)">
  <path transform="translate(0,62.362)" d="m224.66 224.66c2.89-26.01 68.01-170.89 268.09-136.29 200.09 34.6 190.22 218.66 190.22 218.66s28.448 10.975 17.973 46.43-40.439 17.973-40.439 17.973c-22.451 35.299-75.085 88.046-160.35 96.74 1.4522 40.682-142.06 31.924-127.03-7.5795-92.23-45.46-135.95-104.64-148.46-170.03 0 0-31.107 13.686-32.95-25.461-1.8426-39.148 32.95-40.439 32.95-40.439z" fill="#ffd4aa"/>
  <path d="m473.5 369.36c-0.35219-4.7009 0.59442-9.5004 2-14 0.66672-2.1344 1.2558-4.6008 3-6 1.0721-0.85998 2.8451-1.7451 4-1 3.1316 2.0204 2.0327 7.2734 2 11-0.0447 5.0988-0.59399 10.504-3 15-1.1122 2.0781-2.7145 5.5762-5 5-3.3745-0.85077-2.74-6.5296-3-10z" fill="#2e2421" fill-rule="evenodd"/>
  <path d="m509.67 174.68c5.896-2.0696 10.756-6.8625 11.949-13.69 0.68098-3.8946-0.11852-7.8017-2.1878-11.112-2.0693-3.3099-5.7313-6.0418-10.239-6.4266-2.9344-0.25054-5.7231 0.51577-8.1258 2.2896-2.4026 1.7739-4.4034 5.1662-3.9963 8.8684 0.38974 2.4604 2.8596 4.403 5.3426 4.2018 2.483-0.20112 4.6081-2.5158 4.5967-5.0069 0.26518-0.19581 1.0582-0.41171 1.3202-0.38932 1.1644 0.0994 1.9131 0.61317 2.6161 1.7376 0.70297 1.1244 1.0563 2.8253 0.8262 4.1413-0.81789 4.6775-6.2847 7.3774-11.066 6.296-7.0291-1.5898-10.9-9.6109-9.0801-16.624 2.4439-9.4188 13.131-14.439 22.455-11.803 9.905 2.8011 16.32 11.156 15.528 21.468 3.4344 1.553 6.9441 2.6293 9.8392 4.0923 2.069-15.675-7.8269-30.984-22.649-35.176-14.436-4.0825-30.877 3.6513-34.835 18.905-3.1462 12.126 3.5148 25.938 16.539 28.884 3.7132 0.83984 7.6291 0.58516 11.167-0.65661z" color="#000000" fill="#624d37" style="block-progression:tb;text-indent:0;text-transform:none"/>
  <path d="m413.5 357.36c-0.17552-5.096 0.39274-10.618 3-15 1.3312-2.2373 3.4003-4.8611 6-5 1.2001-0.0641 2.4329 0.94036 3 2 1.5729 2.9389 0.37719 6.6881 0 10-0.50323 4.4187-1.495 8.8152-3 13-0.7567 2.1041-1.0979 4.8244-3 6-0.85065 0.52573-2.2053 0.60699-3 0-3.0204-2.3069-2.8692-7.2017-3-11z" fill="#2d2521" fill-rule="evenodd"/>
 </g>
 <path d="m503.58 384.22c0 38.165-30.939 69.103-69.103 69.103-38.165 0-69.103-30.939-69.103-69.103 0-38.165 30.939-69.103 69.103-69.103 38.165 0 69.103 30.939 69.103 69.103z" fill="#cd87de"/>
 <path d="m459.89 384.23a25.418 25.418 0 1 1 -50.835 0 25.418 25.418 0 1 1 50.835 0z" fill="#892ca0"/>
 <path d="m429.44 370.48c-19.079 0-34.656 15.577-34.656 34.656s15.577 34.656 34.656 34.656 34.656-15.577 34.656-34.656-15.577-34.656-34.656-34.656zm0 10c13.675 0 24.656 10.981 24.656 24.656s-10.981 24.656-24.656 24.656-24.656-10.981-24.656-24.656 10.981-24.656 24.656-24.656z" color="#000000" fill="#eed7f4" style="block-progression:tb;text-indent:0;text-transform:none"/>
 <path d="m377.55 377.07c-4.2124-8.3461 11.161-55.775 49.511-53.482-23.9 10.431-38.24 30.422-49.511 53.482z" fill="#eed7f4"/>
 <path d="m372.41 459.81c30.674 41.076 112.76 26.239 128.15 8.2375 30.992 108.13 1.7836 178.97-70.704 178.23-51.15-1.5398-123.8-65.53-57.443-186.47z" fill="#fff"/>
 <path d="m428.39 553.14s26.862-35.744 42.892-7.1486c16.03 28.596-40.774 68.044-40.774 68.044s-54.926-23.4-43.951-58.513 41.833-2.3829 41.833-2.3829z" fill="#892ca0"/>
 <path d="m240.5 694.97c-44.821 1.1181-64.606 46.875-86.406 89.031-16.939 26.215-18.902 50.653-115.44 86.312-17.354 7.1064-29.653 13.421 5.8125 12.188 13.238-1.6461 26.481-2.6454 39.719 2.6562 7.9726 4.7063 18.958 3.402 29.656 2.6562 15.061-4.9757 33.672-1.1002 51.375 0.53125 25.248-3.6223 51.962 8.9394 74.656-22.781 13.232-43.194 20.27-83.942 11.125-115.97-13.484-31.848-5.9545-43.887 4.2188-53.469-5.2028-0.89339-10.082-1.2719-14.719-1.1562zm41.182 5.2489c-3.7205 3.7565-12.615 11.982-22.335 18.335-4.47 11.452-2.1474 13.311-2.5346 22.041 7.5633 26.059 5.2776 29.858 4.7812 40.25 2.1748 0.21453 36.157-8.8805 30.188-65.125-3.4006-10.859-5.3242-13.636-10.099-15.501z" fill="#ddafe9"/>
 <path d="m240.5 694.97c-44.821 1.1181-64.606 46.875-86.406 89.031-16.939 26.215-18.902 50.653-115.44 86.312-17.354 7.1064-29.653 13.421 5.8125 12.188 13.238-1.6461 26.481-2.6454 39.719 2.6562 7.9726 4.7063 18.958 3.402 29.656 2.6562 15.061-4.9757 33.672-1.1002 51.375 0.53125 25.248-3.6223 51.962 8.9394 74.656-22.781 13.232-43.194 20.27-83.942 11.125-115.97-13.484-31.848-5.9545-43.887 4.2188-53.469-5.2028-0.89339-10.082-1.2719-14.719-1.1562zm40.995 5.6233c-4.2133 4.228-13.926 13.106-22.335 17.961-4.47 11.452-1.9602 13.311-2.3474 22.041 7.5633 26.059 5.2776 29.858 4.7812 40.25 2.1748 0.21453 36.157-8.8805 30.188-65.125-1.7804-10.049-7.6036-15.805-10.287-15.127z" fill="url(#c)"/>
 <g transform="translate(0,-62.362)">
  <path transform="translate(0,62.362)" d="m693.07 692.33s10.443-16.086 22.84-3.7443-3.7443 24.338-3.7443 24.338z" fill="#a27850"/>
  <path transform="translate(0,62.362)" d="m686.71 760.47c15.736 14.608 13.736 44.067 52.795 65.526 10.255 11.519-5.3743 28.325-11.607 23.964-29.365-10.892-34.331-25.637-46.055-39.315z" fill="#c9996d"/>
  <path transform="translate(0,62.362)" d="m669.59 890.85c6.0822-1.847 13.084-4.7752 24.111-12.155 4.3821-5.7509 5.0472-10.568-1.2851-15.605-2.9797-2.3085-10.366-0.15561-16.112 3.6987-5.8852 4.0979-12.249-3.7467-13.933-13.087 3.3512-1.4764 21.576-5.0489 31.452-38.941 1.9452-24.733 2.4118-43.283-8.612-61.033l-38.941-1.8722c1.9794 48.142-51.479 76.386 6.3964 135.52 4.4345 3.5697 9.516 5.8456 16.923 3.4697z" fill="#c18956"/>
  <path transform="translate(0,62.362)" d="m630.17 757.48c-22.387 24.898-25.148 53.012-23.215 69.644-3.4859 25.211-15.087 45.164-3.7443 68.521 4.3852 3.8354 24.311 9.9142 40.064 5.9909 4.8891-0.39855 7.5629-4.8784 7.4886-11.233-2.9405-6.8147-9.1667-7.5381-19.096-9.3608 3.3344-16.882 9.7865-22.364 15.726-28.457 15.557-7.7703 26.671-10.232 35.571-45.306 3.5436-14.297 3.2938-26.692-4.8676-53.918-18.092-6.7406-35.724-11.714-47.927 4.1188z" fill="#c9996d"/>
  <path transform="matrix(.91857 .019323 -.020453 .86782 71.125 162.38)" d="m693.74 784.67c1.2032 30.844-10.221 60.496-33.612 54.431-16.078-4.1684-14.396-21.035-14.396-50.813s7.2902-54.213 23.834-54.213c16.543 0 23.013 20.839 24.174 50.595z" fill="#ddbfa3"/>
  <path transform="translate(0,62.362)" d="m611.45 722.28c0.0458 18.889 1.4347 34.927 8.612 47.179 2.0479 9.1924 27.317 6.2711 25.461-8.612-2.629-14.876-5.373-28.6-8.9864-46.43-9.8207 5.2782-18.524 9.0437-25.087 7.8631z" fill="#c18956"/>
  <path d="m651.7 754.69s-10.443-16.086-22.84-3.7443 3.7443 24.338 3.7443 24.338z" fill="#a27850"/>
  <path transform="translate(0,62.362)" d="m715.17 723.03a42.686 38.192 0 1 1 -85.371 0 42.686 38.192 0 1 1 85.371 0z" fill="#c9996d"/>
  <path transform="matrix(1.1863,0,0,1.3286,-125.96,-162.66)" d="m691.2 724.15c0 7.2378-7.0802 8.5958-16.593 8.5958-9.5125 0-17.855-1.3581-17.855-8.5958 0-7.2378 7.7114-13.105 17.224-13.105 9.5125 0 17.224 5.8674 17.224 13.105z" fill="#ddbfa3"/>
  <path d="m667.52 778.38c0.26463-1.2026 0.19704-2.4786-3e-4 -3.6941-0.0936-0.57654-0.15487-1.2361-0.55425-1.6623-0.24548-0.26196-0.6713-0.55631-0.99744-0.40628-0.8844 0.40686-0.79418 1.8058-0.92331 2.7707-0.17666 1.3202-0.23421 2.7382 0.22198 3.9896 0.21088 0.57844 0.49607 1.5422 1.1084 1.4775 0.90403-0.0954 0.94962-1.5873 1.145-2.4752z" fill="#2e2421" fill-rule="evenodd"/>
  <path d="m683.47 777.49c0.23358-1.3113 0.29045-2.7602-0.22198-3.9896-0.26162-0.62771-0.69981-1.3826-1.3669-1.5145-0.30799-0.0608-0.66384 0.15335-0.84962 0.40643-0.51523 0.7019-0.34443 1.7156-0.36919 2.5859-0.033 1.1612 0.0611 2.3347 0.29581 3.4724 0.118 0.57205 0.1058 1.2881 0.55426 1.6623 0.20056 0.16736 0.54786 0.23839 0.77577 0.11076 0.8662-0.48504 1.0078-1.7564 1.1819-2.7337z" fill="#2d2521" fill-rule="evenodd"/>
  <path d="m663.12 796.62c-3.2632 3.6389 4.1209 10.146 7.8631 3.7443" fill="none" stroke="#423121" stroke-linecap="round" stroke-linejoin="round" stroke-width="1px"/>
  <path transform="translate(0,62.362)" d="m681.09 727.52a6.74 3.37 0 1 1 -13.48 0 6.74 3.37 0 1 1 13.48 0z" fill="#a27850"/>
 </g>
</svg>
