<?xml version="1.0" ?><svg height="100%" id="svg23" style="fill-rule:evenodd;clip-rule:evenodd;stroke-linejoin:round;stroke-miterlimit:2;" version="1.1" viewBox="0 0 64 64" width="100%" xml:space="preserve" xmlns="http://www.w3.org/2000/svg" xmlns:cc="http://creativecommons.org/ns#" xmlns:dc="http://purl.org/dc/elements/1.1/" xmlns:inkscape="http://www.inkscape.org/namespaces/inkscape" xmlns:rdf="http://www.w3.org/1999/02/22-rdf-syntax-ns#" xmlns:sodipodi="http://sodipodi.sourceforge.net/DTD/sodipodi-0.dtd" xmlns:svg="http://www.w3.org/2000/svg"><defs id="defs27"/><path d="m 58.000585,16.999622 c 0,-6.071686 -4.928349,-11.0000347 -11.000035,-11.0000347 H 17.000456 c -6.071686,0 -11.0000346,4.9283487 -11.0000346,11.0000347 v 30.000094 c 0,6.071686 4.9283486,11.000035 11.0000346,11.000035 0,0 30.000094,0 30.000094,0 6.071686,0 11.000035,-4.928349 11.000035,-11.000035 0,0 0,-30.000094 0,-30.000094 z m -2.000007,0 v 30.000094 c 0,4.966682 -4.033346,9.000028 -9.000028,9.000028 H 17.000456 c -4.966682,0 -9.0000284,-4.033346 -9.0000284,-9.000028 0,0 0,-30.000094 0,-30.000094 0,-4.966682 4.0333464,-9.0000285 9.0000284,-9.0000285 0,0 30.000094,0 30.000094,0 4.966682,0 9.000028,4.0333465 9.000028,9.0000285 z" id="path4" style="stroke-width:1.66667;fill:#000000"/><path d="m 18.000456,13.000141 c -2.759608,0 -5.000015,2.240407 -5.000015,5.000015 0,2.759609 2.240407,5.000016 5.000015,5.000016 2.759609,0 5.000016,-2.240407 5.000016,-5.000016 0,-2.759608 -2.240407,-5.000015 -5.000016,-5.000015 z m 0,2.000006 c 1.655739,0 3.00001,1.344271 3.00001,3.000009 0,1.655739 -1.344271,3.00001 -3.00001,3.00001 -1.655738,0 -3.000009,-1.344271 -3.000009,-3.00001 0,-1.655738 1.344271,-3.000009 3.000009,-3.000009 z" id="path8" style="stroke-width:0.133334;fill:#000000"/><path d="m 23.000472,26.000181 c 0,-0.552402 -0.447681,-1.000003 -1.000003,-1.000003 h -8.000025 c -0.552322,0 -1.000003,0.447601 -1.000003,1.000003 v 24.000075 c 0,0.552402 0.447681,1.000003 1.000003,1.000003 h 8.000025 c 0.552322,0 1.000003,-0.447601 1.000003,-1.000003 z m -2.000006,1.000003 v 22.000069 c 0,0 -6.000019,0 -6.000019,0 0,0 0,-22.000069 0,-22.000069 z" id="path12" style="stroke-width:0.252983;fill:#000000"/><path d="m 35.0005,27.001184 v -1.001003 c 0,-0.552002 -0.448002,-1.000004 -1.000004,-1.000004 h -8.000024 c -0.552002,0 -1.000003,0.448002 -1.000003,1.000004 v 24.000074 c 0,0.552002 0.448001,1.000003 1.000003,1.000003 h 8.000024 c 0.552002,0 1.000004,-0.448001 1.000004,-1.000003 V 38.500219 c 0,-1.656005 1.344004,-3.000009 3.000009,-3.000009 1.656005,0 3.000009,1.344004 3.000009,3.000009 0,0 0,11.500036 0,11.500036 0,0.552002 0.448001,1.000003 1.000003,1.000003 h 8.000025 c 0.552002,0 1.000003,-0.448001 1.000003,-1.000003 V 35.000209 c 0,-5.519018 -4.481014,-10.000032 -10.000031,-10.000032 -2.250007,0 -4.328013,0.745003 -6.000018,2.001007 z m -2.000007,2.344007 c 0,0.424001 0.267001,0.802002 0.666002,0.943003 0.400002,0.141 0.845003,0.016 1.111004,-0.314001 1.468004,-1.813006 3.711011,-2.974009 6.223019,-2.974009 4.415014,0 8.000025,3.585011 8.000025,8.000025 v 14.000043 c 0,0 -6.000019,0 -6.000019,0 0,0 0,-10.500033 0,-10.500033 0,-2.760008 -2.240007,-5.000015 -5.000015,-5.000015 -2.760009,0 -5.000016,2.240007 -5.000016,5.000015 0,0 0,10.500033 0,10.500033 0,0 -6.000018,0 -6.000018,0 0,0 0,-22.000068 0,-22.000068 0,0 6.000018,0 6.000018,0 0,0 0,2.345007 0,2.345007 z" id="path16" style="stroke-width:1;fill:#000000"/></svg>